<?xml version="1.0" standalone="no"?>
<!DOCTYPE svg PUBLIC "-//W3C//DTD SVG 20010904//EN"
 "http://www.w3.org/TR/2001/REC-SVG-20010904/DTD/svg10.dtd">
<svg version="1.0" xmlns="http://www.w3.org/2000/svg"
 width="505.000000pt" height="494.000000pt" viewBox="0 0 505.000000 494.000000"
 preserveAspectRatio="xMidYMid meet">
<metadata>
Created by potrace 1.16, written by Peter Selinger 2001-2019
</metadata>
<g transform="translate(0.000000,494.000000) scale(0.100000,-0.100000)"
fill="#0052CC" stroke="none">
<path d="M2351 4105 c-223 -49 -378 -144 -528 -323 -146 -175 -226 -450 -193
-667 40 -274 183 -503 405 -650 130 -86 327 -145 485 -145 77 0 222 23 293 46
62 21 189 87 247 129 106 78 235 236 287 353 36 80 71 225 78 323 14 176 -45
392 -150 548 -133 200 -355 346 -584 386 -103 18 -255 18 -340 0z m272 -393
c3 -4 -12 -95 -32 -202 -27 -137 -35 -197 -27 -202 6 -4 55 -8 108 -8 53 0
100 -4 103 -10 5 -8 -39 -96 -104 -205 -10 -16 -57 -97 -104 -180 -109 -191
-111 -193 -130 -177 -9 7 -12 23 -10 40 7 38 62 322 68 350 5 22 4 22 -104 22
-67 0 -112 4 -116 11 -7 11 28 84 105 214 26 44 80 136 120 205 40 69 77 131
83 138 10 13 33 16 40 4z"/>
<path d="M1875 1936 c-46 -20 -85 -71 -85 -112 0 -82 51 -121 184 -145 81 -14
111 -37 101 -77 -3 -14 -14 -31 -23 -38 -47 -35 -157 -21 -193 24 -19 25 -20
25 -55 8 l-36 -16 19 -32 c10 -17 38 -42 63 -56 39 -21 55 -23 125 -20 92 5
137 24 165 71 37 60 18 146 -40 180 -16 10 -64 25 -107 33 -75 14 -123 35
-123 53 0 38 47 71 100 71 31 0 90 -24 101 -42 7 -11 69 17 69 30 0 16 -43 54
-76 68 -42 18 -149 17 -189 0z"/>
<path d="M3636 1940 c-85 -26 -121 -139 -63 -200 26 -29 71 -47 147 -59 76
-12 110 -33 110 -66 0 -78 -151 -98 -215 -29 l-23 25 -38 -19 -37 -19 38 -41
c41 -47 82 -62 164 -62 76 0 127 18 161 57 37 42 41 110 10 160 -25 42 -43 51
-147 69 -48 8 -93 20 -100 26 -22 18 -15 55 15 78 22 18 35 21 75 16 26 -3 60
-14 75 -25 26 -18 29 -18 60 -2 l34 17 -26 30 c-13 17 -42 36 -64 42 -45 14
-133 14 -176 2z"/>
<path d="M720 1711 l0 -231 135 0 c150 0 187 9 223 55 37 47 27 128 -20 166
-20 16 -20 16 6 42 47 47 28 139 -37 174 -25 14 -63 18 -169 21 l-138 4 0
-231z m270 129 c24 -24 25 -39 6 -66 -12 -16 -29 -20 -105 -22 l-91 -4 0 56 0
56 85 0 c72 0 88 -3 105 -20z m-10 -178 c25 -12 36 -25 38 -44 5 -43 -28 -58
-130 -58 l-88 0 0 60 0 60 73 0 c48 0 83 -6 107 -18z"/>
<path d="M1170 1709 l0 -230 42 3 42 3 0 70 1 70 41 3 c40 3 44 1 111 -73 l69
-76 49 3 49 3 -69 78 c-37 43 -66 79 -64 81 2 1 19 8 36 15 44 18 73 67 73
122 0 64 -27 110 -80 137 -39 19 -59 22 -172 22 l-128 0 0 -231z m259 136 c48
-24 55 -72 16 -111 -23 -23 -31 -25 -107 -22 l-83 3 -2 60 c-1 33 0 66 3 73 5
18 137 16 173 -3z"/>
<path d="M1617 1933 c-4 -3 -7 -107 -7 -230 l0 -223 45 0 45 0 0 230 0 230
-38 0 c-21 0 -42 -3 -45 -7z"/>
<path d="M2237 1934 c-4 -4 -7 -108 -7 -231 l0 -223 45 0 45 0 0 99 0 100 98
-100 97 -100 50 3 50 3 -107 111 c-60 60 -108 114 -108 118 0 5 43 55 95 111
52 57 95 106 95 109 0 3 -21 6 -48 6 -47 0 -47 0 -132 -95 l-85 -96 -5 93 -5
93 -35 3 c-20 2 -39 0 -43 -4z"/>
<path d="M2660 1710 l0 -230 45 0 45 0 0 85 0 85 115 0 115 0 0 40 0 40 -115
0 -115 0 0 65 0 65 120 0 120 0 0 40 0 40 -165 0 -165 0 0 -230z"/>
<path d="M3204 1918 c-4 -13 -24 -59 -44 -103 -53 -113 -150 -327 -150 -331 0
-2 21 -4 46 -4 44 0 46 1 65 45 l20 45 120 0 120 0 19 -45 c19 -44 20 -45 65
-45 l45 0 -14 33 c-54 128 -180 404 -188 415 -6 6 -30 12 -54 12 -35 0 -44 -4
-50 -22z m102 -174 c19 -43 34 -82 34 -86 0 -5 -36 -8 -81 -8 -61 0 -80 3 -76
13 46 118 73 175 80 168 5 -5 24 -44 43 -87z"/>
<path d="M3960 1900 l0 -40 70 0 70 0 0 -190 0 -190 45 0 45 0 0 190 0 190 70
0 70 0 0 40 0 40 -185 0 -185 0 0 -40z"/>
</g>
</svg>
